Simulation
nRows=20
nColumns=15
endheader
time  TH_x TH_y TH_z SC_y  SC_z  SC_x  AC_y  AC_z  AC_x  GH_y  GH_z  GH_yy  EL_x  PS_y
0.0  0.000000  0.000000  0.000000  -32.25389309566863  1.0133268659813364  19.695389660721066  67.21328450500826  3.130295855550068  -9.319010767827585  46.20314464573484  47.69327256816498  -54.56386220980267  24.08347553096559  0.000000
0.023  0.000000  0.000000  0.000000  -32.43185591398973  1.7226020161074713  20.49629507632805  67.13292827011428  4.106714322530653  -9.03164316682606  45.733414822413195  49.43332489800562  -54.65890772101058  24.40218550802876  0.000000
0.046  0.000000  0.000000  0.000000  -32.78794622396163  2.325577021382213  20.851685355626227  66.93584966457799  4.596958586867031  -8.701354218817384  45.445527547311706  50.87284634980271  -54.73517992973583  25.018210434317144  0.000000
0.069  0.000000  0.000000  0.000000  -33.124731764217735  2.642237482903014  21.016654616830397  66.77747880842809  4.83602958627683  -8.505254612242103  45.28473822656728  51.923490101390456  -54.90862010422868  25.525293787477707  0.000000
0.092  0.000000  0.000000  0.000000  -33.37341124305514  2.759495452679517  21.09513129013521  66.66317067798502  4.864916532933758  -8.498010327186034  45.23664464227781  52.62271063822296  -55.21903308096774  25.868551439753215  0.000000
0.11499999999999999  0.000000  0.000000  0.000000  -33.55580208645964  2.6349363242253325  21.142818589961276  66.55639394793286  4.700583225084051  -8.696378404739795  45.31859428831561  53.024489080553  -55.61119381328917  26.10668819271487  0.000000
0.138  0.000000  0.000000  0.000000  -33.66049848950271  2.3705846392111796  21.152900121083768  66.44835395466609  4.373868818224373  -9.070473803890268  45.51816742056909  53.192833892892494  -56.11227363183766  26.260825015664793  0.000000
0.161  0.000000  0.000000  0.000000  -33.69687985292649  2.0248780193699885  21.122871328731954  66.30420746648765  3.977581383292801  -9.524040824443366  45.836023812974325  53.135209202601395  -56.67523766832793  26.325523566832462  0.000000
0.184  0.000000  0.000000  0.000000  -33.675177699551284  1.6596554683840161  21.027933789650163  66.15376782335531  3.5861017170671934  -9.98978093658388  46.22464032629865  52.91359506409481  -57.329188253299456  26.304060608801404  0.000000
0.207  0.000000  0.000000  0.000000  -33.62248624186846  1.3238305816837692  20.876366369681353  66.00252223598264  3.2500992831694586  -10.385347137349314  46.66572676611295  52.568303149931374  -58.04242890283681  26.20581937551263  0.000000
0.22999999999999998  0.000000  0.000000  0.000000  -33.557665444992026  1.0443553774201944  20.67110458909465  65.87899482750456  2.987057034159362  -10.67018294130903  47.12340984457765  52.16522613389124  -58.815953480773516  26.06689517048323  0.000000
0.253  0.000000  0.000000  0.000000  -33.49834316282813  0.8362568989942095  20.432064643545885  65.79864696331784  2.803154948347608  -10.826208050414223  47.588586857286636  51.74512626047858  -59.627172337629624  25.91603193091583  0.000000
0.276  0.000000  0.000000  0.000000  -33.44245901515611  0.7008114799219616  20.167792692766888  65.75910598904167  2.684240239084588  -10.852180119927636  48.048187665516494  51.34567866767834  -60.466238775008065  25.772296277305777  0.000000
0.299  0.000000  0.000000  0.000000  -33.3871151893629  0.6352901295110204  19.89071732744822  65.75969189569308  2.619642447902522  -10.774491293518155  48.503863243926936  50.98443764174271  -61.31893868351906  25.646148730688484  0.000000
0.322  0.000000  0.000000  0.000000  -33.32866770229693  0.6235343632515268  19.607892815238696  65.78173869377633  2.5890925336381776  -10.613899442285929  48.95843930572064  50.667128418434366  -62.16973602371013  25.544140801841415  0.000000
0.345  0.000000  0.000000  0.000000  -33.264141807652884  0.6478774657831643  19.32508207007432  65.82535035550046  2.578782408162177  -10.40647701761138  49.41109536280268  50.39339340278644  -63.01438636893904  25.464322668960673  0.000000
0.368  0.000000  0.000000  0.000000  -33.19217011731837  0.6909280047287036  19.04812982503695  65.87556942292554  2.5732494586545918  -10.171801420353143  49.866631716101594  50.150005286236286  -63.839069108820716  25.405683778486857  0.000000
0.391  0.000000  0.000000  0.000000  -33.11241583462362  0.7394585655296732  18.777814731802604  65.93577764899068  2.5628035474064697  -9.930877914236834  50.32346524391955  49.9269356415088  -64.64268018214487  25.36515138538619  0.000000
0.414  0.000000  0.000000  0.000000  -33.025144065085854  0.7854823504164936  18.516303475912345  65.99879346883851  2.5393517384640663  -9.69163588337002  50.787040642964314  49.70908293259576  -65.41495861248622  25.342041728924368  0.000000
0.437  0.000000  0.000000  0.000000  -32.930032810914184  0.8219543896343451  18.26293587590537  66.06819776958302  2.498984794860249  -9.461627752994447  51.256043371152536  49.487917083010096  -66.1556280575249  25.333003167967412  0.000000
